<svg width="202" height="42" fill="none" xmlns="http://www.w3.org/2000/svg"><path opacity=".5" d="M13.968 41.57H7.675L0 18.067h7.878l3.268 12.448L15.583 18h5.456l4.445 12.515 3.2-12.448h7.704L28.646 41.57h-6.158l-4.21-12.29-4.31 12.29zm42.788-.135H38.071V18.067h18.481v6.175H45.308v2.066h8.822v5.681h-8.822v3.271h11.448v6.175zm15.191 0H59.495V18.067h11.946a8.844 8.844 0 015.388 1.497 5.114 5.114 0 011.634 1.95 5.07 5.07 0 01.487 2.489 4.296 4.296 0 01-.966 2.874 5.799 5.799 0 01-1.887 1.602 5.42 5.42 0 013.019 2.006 6.048 6.048 0 011.509 4.17 5.946 5.946 0 01-.6 2.74 5.998 5.998 0 01-1.792 2.17 9.867 9.867 0 01-6.286 1.87zm-5.215-17.799v3.144H70.4c.45.016.89-.139 1.23-.434a1.387 1.387 0 00.49-1.07 1.538 1.538 0 00-.49-1.183 1.759 1.759 0 00-1.23-.457h-3.668zm0 8.151v3.87h3.773a2.276 2.276 0 001.562-.516 1.76 1.76 0 00.589-1.385 1.828 1.828 0 00-.604-1.422 2.207 2.207 0 00-1.51-.547h-3.81z" fill="#fff"/><path d="M101.793 41.435H83.108V18.067h18.481v6.175H90.345v2.066h8.822v5.681h-8.822v3.271h11.448v6.175zm9.727 0h-7.003V18.067h7.169l5.154 8.308 5.184-8.308h7.131v23.368h-6.935V28.344l-3.328 5.576h-3.931l-3.464-5.576.023 13.091zm28.208 0h-7.003V18.067h7.138l5.155 8.308 5.176-8.308h7.139v23.368h-6.905V28.344L147.1 33.92h-3.909l-3.463-5.576v13.091zm39.89 0h-18.685V18.067h18.481v6.175H168.17v2.066h8.822v5.681h-8.822v3.271h11.448v6.175zm1.683-17.193v-6.175H202v6.175h-6.791v17.216h-7.237V24.242h-6.671z" fill="#fff"/><rect x="161" width="41" height="15" rx="3" fill="url(#paint0_linear)"/><path d="M170.96 12V3.48h3.576c.384 0 .736.08 1.056.24.328.16.608.372.84.636.232.256.412.552.54.888.136.328.204.664.204 1.008 0 .36-.064.708-.192 1.044-.12.328-.292.624-.516.888a2.639 2.639 0 01-.816.624c-.312.152-.66.228-1.044.228h-2.304V12h-1.344zm1.344-4.152h2.22c.192 0 .364-.04.516-.12.16-.08.296-.192.408-.336.112-.144.2-.312.264-.504s.096-.404.096-.636c0-.24-.036-.456-.108-.648a1.452 1.452 0 00-.3-.492 1.247 1.247 0 00-.444-.324c-.16-.08-.328-.12-.504-.12h-2.148v3.18zM178.437 12V3.48h3.708c.384 0 .736.08 1.056.24.328.16.608.372.84.636.232.256.412.552.54.888.136.328.204.664.204 1.008a2.903 2.903 0 01-.456 1.56c-.144.224-.32.42-.528.588-.208.16-.436.28-.684.36l2.004 3.24h-1.524l-1.848-2.964h-1.968V12h-1.344zm1.344-4.152h2.352c.192 0 .364-.04.516-.12.16-.088.296-.204.408-.348a1.923 1.923 0 00.36-1.128c0-.216-.04-.42-.12-.612a1.591 1.591 0 00-.3-.504 1.263 1.263 0 00-.432-.336 1.031 1.031 0 00-.504-.132h-2.28v3.18zm10.129 4.212a3.83 3.83 0 01-1.668-.36 4.29 4.29 0 01-1.284-.972 4.558 4.558 0 01-.84-1.392 4.574 4.574 0 01-.288-1.596c0-.568.104-1.112.312-1.632.208-.52.492-.98.852-1.38.368-.4.8-.716 1.296-.948a3.774 3.774 0 011.644-.36c.608 0 1.16.128 1.656.384.504.248.932.576 1.284.984.36.408.636.872.828 1.392a4.354 4.354 0 01-.012 3.204c-.2.52-.484.98-.852 1.38a4.325 4.325 0 01-1.308.948 3.776 3.776 0 01-1.62.348zm-2.712-4.32c0 .4.064.788.192 1.164.128.376.308.708.54.996.24.288.528.52.864.696.336.168.712.252 1.128.252.432 0 .812-.088 1.14-.264.336-.184.62-.424.852-.72.232-.296.408-.628.528-.996a3.616 3.616 0 00-.012-2.292 2.96 2.96 0 00-.552-.984 2.537 2.537 0 00-.852-.684 2.297 2.297 0 00-1.104-.264 2.36 2.36 0 00-1.152.276c-.336.176-.62.408-.852.696-.232.288-.412.62-.54.996-.12.368-.18.744-.18 1.128z" fill="#fff"/><defs><linearGradient id="paint0_linear" x1="161" y1="7.5" x2="202" y2="7.5" gradientUnits="userSpaceOnUse"><stop stop-color="#128B96"/><stop offset="1" stop-color="#1B9EFC"/></linearGradient></defs></svg>